<svg width="215" height="36" viewBox="0 0 215 36" fill="none" xmlns="http://www.w3.org/2000/svg">
<path d="M153.641 11.4459L150.718 29.0549H146.728L141.913 19.8033H141.81L140.262 29.0549H135.482L138.405 11.4459H142.464L147.21 20.6631H147.347L148.861 11.4459H153.641Z" fill="#FF5F3F"/>
<path d="M134.68 20.5599C134.359 22.4744 133.723 24.0794 132.771 25.3749C131.82 26.6703 130.665 27.6476 129.306 28.3068C127.948 28.966 126.495 29.2956 124.947 29.2956C123.296 29.2956 121.863 28.9374 120.648 28.2208C119.433 27.5043 118.547 26.4554 117.991 25.0739C117.435 23.6925 117.323 22.0044 117.656 20.0096C117.965 18.0951 118.596 16.4844 119.547 15.1774C120.499 13.8705 121.66 12.8817 123.03 12.2111C124.4 11.5404 125.864 11.2051 127.423 11.2051C129.063 11.2051 130.487 11.5662 131.697 12.2885C132.912 13.0107 133.794 14.0683 134.345 15.4612C134.901 16.8541 135.013 18.5537 134.68 20.5599ZM129.865 20.0096C130.026 19.0008 130.037 18.1524 129.9 17.4646C129.762 16.771 129.472 16.2494 129.031 15.8997C128.59 15.5443 127.996 15.3666 127.251 15.3666C126.403 15.3666 125.652 15.573 124.999 15.9857C124.345 16.3984 123.803 16.9917 123.374 17.7655C122.944 18.5393 122.643 19.4708 122.471 20.5599C122.287 21.5802 122.27 22.4286 122.419 23.1049C122.574 23.7813 122.878 24.2886 123.331 24.6268C123.789 24.965 124.385 25.1341 125.119 25.1341C125.956 25.1341 126.695 24.9335 127.337 24.5322C127.985 24.131 128.521 23.5492 128.945 22.7868C129.375 22.0244 129.682 21.0987 129.865 20.0096Z" fill="#FF5F3F"/>
<path d="M102.205 15.2978L102.858 11.4459H118.163L117.51 15.2978H112.213L109.943 29.0549H105.231L107.501 15.2978H102.205Z" fill="black"/>
<path d="M84.0069 29.0549L86.9303 11.4459H94.5311C95.838 11.4459 96.9414 11.6837 97.8414 12.1595C98.7413 12.6353 99.389 13.3203 99.7845 14.2145C100.18 15.1087 100.275 16.1806 100.068 17.4302C99.8619 18.6912 99.4062 19.7545 98.7012 20.6201C98.0019 21.4799 97.1105 22.1334 96.0271 22.5805C94.9495 23.0218 93.74 23.2425 92.3987 23.2425H87.8589L88.478 19.5281H92.0548C92.6165 19.5281 93.1095 19.4593 93.5337 19.3218C93.9579 19.1785 94.3018 18.9549 94.5655 18.6511C94.8291 18.3416 95.0011 17.9346 95.0813 17.4302C95.1616 16.9257 95.1215 16.5159 94.961 16.2006C94.8005 15.8796 94.5339 15.6446 94.1613 15.4956C93.7888 15.3408 93.3273 15.2634 92.777 15.2634H91.0918L88.7875 29.0549H84.0069ZM95.666 20.9726L98.727 29.0549H93.5337L90.5759 20.9726H95.666Z" fill="black"/>
<path d="M83.2051 20.5599C82.8841 22.4744 82.2479 24.0794 81.2964 25.3749C80.3448 26.6703 79.1898 27.6476 77.8313 28.3068C76.4728 28.966 75.0197 29.2956 73.472 29.2956C71.8212 29.2956 70.3882 28.9374 69.173 28.2208C67.9578 27.5043 67.0722 26.4554 66.5161 25.0739C65.9601 23.6925 65.8483 22.0044 66.1808 20.0096C66.4903 18.0951 67.1209 16.4844 68.0724 15.1774C69.0239 13.8705 70.1847 12.8817 71.5547 12.2111C72.9246 11.5404 74.3892 11.2051 75.9483 11.2051C77.5877 11.2051 79.0121 11.5662 80.2216 12.2885C81.4368 13.0107 82.3195 14.0683 82.8698 15.4612C83.4258 16.8541 83.5376 18.5537 83.2051 20.5599ZM78.3902 20.0096C78.5507 19.0008 78.5621 18.1524 78.4246 17.4646C78.287 16.771 77.9975 16.2494 77.5562 15.8997C77.1148 15.5443 76.5215 15.3666 75.7763 15.3666C74.928 15.3666 74.1771 15.573 73.5236 15.9857C72.8702 16.3984 72.3285 16.9917 71.8986 17.7655C71.4687 18.5393 71.1677 19.4708 70.9958 20.5599C70.8123 21.5802 70.7951 22.4286 70.9442 23.1049C71.099 23.7813 71.4028 24.2886 71.8556 24.6268C72.3142 24.965 72.9103 25.1341 73.644 25.1341C74.4809 25.1341 75.2203 24.9335 75.8623 24.5322C76.5101 24.131 77.046 23.5492 77.4702 22.7868C77.9001 22.0244 78.2068 21.0987 78.3902 20.0096Z" fill="black"/>
<path d="M48.8469 29.0549L51.7703 11.4459H59.3711C60.678 11.4459 61.7786 11.7038 62.6728 12.2197C63.567 12.7356 64.209 13.4607 64.5988 14.395C64.9885 15.3294 65.0803 16.4213 64.8739 17.6709C64.6675 18.9434 64.209 20.0411 63.4982 20.964C62.7931 21.8811 61.8932 22.5891 60.7984 23.0877C59.7093 23.5807 58.4883 23.8272 57.1356 23.8272H52.5957L53.2148 20.1128H56.7916C57.3648 20.1128 57.8693 20.0153 58.3049 19.8205C58.7406 19.6198 59.0931 19.339 59.3625 18.9778C59.6319 18.611 59.8067 18.1753 59.887 17.6709C59.9672 17.1665 59.93 16.7366 59.7752 16.3812C59.6262 16.0201 59.3682 15.7449 59.0014 15.5558C58.6402 15.3609 58.1788 15.2634 57.6171 15.2634H55.9318L53.6275 29.0549H48.8469Z" fill="black"/>
<path d="M44.2082 16.9487C44.2598 16.3812 44.1223 15.937 43.7955 15.616C43.4688 15.2892 42.9185 15.1259 42.1447 15.1259C41.6517 15.1259 41.239 15.1832 40.9066 15.2978C40.5798 15.4125 40.3247 15.5701 40.1413 15.7707C39.9636 15.9713 39.8518 16.2035 39.806 16.4672C39.7544 16.6735 39.7573 16.8627 39.8146 17.0346C39.8776 17.2009 39.9951 17.3528 40.1671 17.4904C40.3448 17.6279 40.577 17.7512 40.8636 17.8601C41.1559 17.969 41.5027 18.0664 41.9039 18.1524L43.2796 18.4619C44.2197 18.6683 45.0079 18.9406 45.6441 19.2788C46.2861 19.6112 46.7906 20.0067 47.1574 20.4653C47.5243 20.9239 47.765 21.4369 47.8796 22.0044C48 22.5719 48.0029 23.1909 47.8882 23.8616C47.6934 25.0195 47.2434 25.9997 46.5383 26.8021C45.8333 27.6046 44.9133 28.2151 43.7783 28.6336C42.6434 29.052 41.3307 29.2612 39.8404 29.2612C38.3156 29.2612 37.0202 29.0348 35.954 28.582C34.8936 28.1234 34.1255 27.4241 33.6497 26.484C33.1797 25.5382 33.065 24.3316 33.3058 22.8642H37.8456C37.7768 23.403 37.8341 23.8558 38.0176 24.2227C38.201 24.5896 38.4962 24.8676 38.9032 25.0567C39.3102 25.2459 39.8175 25.3405 40.4251 25.3405C40.9409 25.3405 41.3823 25.2774 41.7492 25.1513C42.116 25.0252 42.4055 24.8504 42.6176 24.6268C42.8297 24.4033 42.9586 24.1482 43.0045 23.8616C43.0504 23.5979 43.0045 23.3629 42.8669 23.1565C42.7294 22.9502 42.48 22.7639 42.1189 22.5977C41.7578 22.4314 41.2619 22.2795 40.6314 22.1419L38.9462 21.7636C37.4501 21.4197 36.3209 20.8522 35.5585 20.0612C34.7961 19.2702 34.5267 18.1868 34.7503 16.8111C34.9337 15.6876 35.3951 14.7074 36.1346 13.8705C36.8798 13.0279 37.8255 12.3745 38.972 11.9102C40.1241 11.4401 41.3995 11.2051 42.7981 11.2051C44.2197 11.2051 45.4091 11.443 46.3664 11.9188C47.3294 12.3945 48.0201 13.0623 48.4385 13.9221C48.8627 14.7819 48.9773 15.7908 48.7825 16.9487H44.2082Z" fill="black"/>
<path d="M8.84211 24.0449L10.1053 36L2.52632 30.9663V27.191L0 25.3034L1.57895 11.7753L12 8V25.3034L11.3684 24.9888L11.0526 20.8989L4.42105 17.1236L4.10526 21.2135L8.84211 24.0449Z" fill="#0C0707"/>
<path d="M15.1579 24.0449L13.8947 36L21.4737 30.9663V27.191L24 25.3034L22.4211 11.7753L12 8V25.3034L12.6316 24.9888L12.9474 20.8989L19.5789 17.1236L19.8947 21.2135L15.1579 24.0449Z" fill="#0C0707"/>
<path d="M12.5 7L4 10L6.2037 7L12.5 4V7Z" fill="#FF5F3F"/>
<path d="M12.5 7L21 10L18.7963 7L12.5 4V7Z" fill="#FF5F3F"/>
<path d="M12 3.07692L10 4L10.3539 2.46154L12 0V3.07692Z" fill="black"/>
<path d="M12 3.07692L14 4L13.6461 2.46154L12 0V3.07692Z" fill="black"/>
<path d="M211.856 19.5297C212.828 19.5297 213.591 19.7952 214.144 20.3263C214.709 20.8461 214.992 21.5918 214.992 22.5635C214.992 22.9251 214.963 23.2528 214.907 23.5465L213.924 29.0549H211.568L212.483 23.8686C212.517 23.6652 212.534 23.4675 212.534 23.2754C212.534 22.7104 212.382 22.281 212.077 21.9873C211.783 21.6935 211.359 21.5466 210.805 21.5466C210.173 21.5466 209.63 21.7387 209.178 22.1229C208.738 22.4957 208.444 23.0381 208.297 23.7499L207.365 29.0549H204.975L206.636 19.6653H209.026L208.822 20.8178C209.207 20.4223 209.664 20.1116 210.195 19.8856C210.726 19.6484 211.28 19.5297 211.856 19.5297Z" fill="black"/>
<path d="M203.326 18.5467C202.953 18.5467 202.653 18.4393 202.427 18.2247C202.201 18.01 202.088 17.7388 202.088 17.4111C202.088 16.9592 202.258 16.575 202.597 16.2586C202.947 15.9309 203.354 15.7671 203.817 15.7671C204.179 15.7671 204.472 15.8744 204.698 16.0891C204.924 16.3038 205.037 16.575 205.037 16.9027C205.037 17.3546 204.868 17.7445 204.529 18.0721C204.19 18.3885 203.789 18.5467 203.326 18.5467ZM204.309 19.6653L202.648 29.0549H200.258L201.919 19.6653H204.309Z" fill="black"/>
<path d="M195.854 19.5297C196.848 19.5297 197.633 19.7952 198.21 20.3263C198.786 20.8574 199.074 21.6087 199.074 22.5805C199.074 22.942 199.046 23.2641 198.989 23.5465L198.006 29.0549H195.65L196.566 23.8686C196.599 23.6652 196.616 23.4675 196.616 23.2754C196.616 22.733 196.464 22.3206 196.159 22.0381C195.865 21.7443 195.441 21.5975 194.888 21.5975C194.232 21.5975 193.679 21.7952 193.227 22.1907C192.775 22.5748 192.492 23.1341 192.379 23.8686V23.8516L191.447 29.0549H189.091L190.006 23.8686C190.04 23.6652 190.057 23.4731 190.057 23.2923C190.057 22.7387 189.905 22.3206 189.6 22.0381C189.295 21.7443 188.865 21.5975 188.312 21.5975C187.69 21.5975 187.153 21.7839 186.701 22.1568C186.261 22.5183 185.973 23.0381 185.837 23.716L184.888 29.0549H182.498L184.159 19.6653H186.549L186.346 20.7839C186.718 20.3997 187.165 20.0947 187.684 19.8687C188.204 19.6427 188.752 19.5297 189.328 19.5297C190.063 19.5297 190.69 19.6879 191.21 20.0043C191.73 20.3094 192.097 20.75 192.311 21.3263C192.707 20.7839 193.221 20.3489 193.854 20.0212C194.498 19.6935 195.164 19.5297 195.854 19.5297Z" fill="black"/>
<path d="M171.249 24.3262C171.418 23.3771 171.752 22.5353 172.249 21.8008C172.757 21.0664 173.373 20.5014 174.096 20.106C174.831 19.7105 175.599 19.5128 176.401 19.5128C177.011 19.5128 177.571 19.6484 178.079 19.9195C178.588 20.1794 178.966 20.5297 179.215 20.9703L180.011 16.5128H182.401L180.181 29.0549H177.791L178.045 27.6651C177.672 28.1283 177.192 28.5012 176.605 28.7837C176.028 29.0662 175.39 29.2074 174.689 29.2074C174 29.2074 173.384 29.0549 172.842 28.7498C172.311 28.4334 171.893 27.9927 171.588 27.4278C171.294 26.8515 171.147 26.1849 171.147 25.4278C171.147 25.0776 171.181 24.7104 171.249 24.3262ZM178.621 24.3601C178.667 24.0663 178.689 23.8516 178.689 23.716C178.689 23.0494 178.491 22.5296 178.096 22.1568C177.712 21.7839 177.226 21.5974 176.638 21.5974C176.198 21.5974 175.768 21.7048 175.35 21.9195C174.944 22.1342 174.588 22.4505 174.283 22.8686C173.977 23.2754 173.774 23.7612 173.672 24.3262C173.639 24.5409 173.622 24.7443 173.622 24.9363C173.622 25.6143 173.814 26.151 174.198 26.5465C174.582 26.9306 175.068 27.1227 175.655 27.1227C176.096 27.1227 176.525 27.0154 176.944 26.8007C177.362 26.5747 177.717 26.2527 178.011 25.8346C178.316 25.4165 178.52 24.925 178.621 24.3601Z" fill="black"/>
<path d="M166.54 26.8007H161.811L160.642 29.0549H158.15L164.506 17.2077H167.269L169.421 29.0549H166.913L166.54 26.8007ZM166.235 24.9533L165.388 19.9365L162.777 24.9533H166.235Z" fill="black"/>
</svg>
